<?xml version="1.0" standalone="no"?>
<!DOCTYPE svg PUBLIC "-//W3C//DTD SVG 20010904//EN"
 "http://www.w3.org/TR/2001/REC-SVG-20010904/DTD/svg10.dtd">
<svg version="1.0" xmlns="http://www.w3.org/2000/svg"
 width="1254.000000pt" height="1254.000000pt" viewBox="0 0 1254.000000 1254.000000"
 preserveAspectRatio="xMidYMid meet">

<g transform="translate(0.000000,1254.000000) scale(0.100000,-0.100000)"
fill="#000000" stroke="none">
<path d="M1 11553 c1 -572 5 -961 10 -923 57 453 197 787 470 1125 68 84 239
253 329 326 305 245 702 408 1090 448 54 5 -278 9 -907 10 l-993 1 1 -987z"/>
<path d="M10679 12524 c515 -56 1025 -337 1374 -757 71 -85 191 -266 250 -377
117 -218 206 -506 226 -731 5 -58 9 283 10 894 l1 987 -992 -1 c-894 -1 -981
-3 -869 -15z"/>
<path d="M4475 10054 c-214 -31 -371 -77 -524 -154 -334 -168 -543 -433 -617
-780 -28 -132 -24 -335 9 -470 57 -237 166 -435 334 -611 179 -186 400 -305
684 -366 116 -25 417 -25 539 1 332 69 586 204 898 479 116 102 385 373 582
587 205 222 507 527 635 640 308 272 596 429 908 496 117 26 380 26 497 0 428
-93 729 -383 812 -786 26 -122 20 -333 -11 -453 -84 -318 -299 -579 -608 -736
-187 -95 -359 -134 -588 -134 -461 2 -874 205 -1350 663 -142 137 -137 123 21
-60 351 -407 726 -638 1140 -704 336 -53 700 32 984 232 521 366 657 1111 301
1652 -52 81 -201 231 -287 290 -393 272 -949 291 -1449 50 -313 -151 -605
-400 -1091 -930 -437 -478 -663 -693 -905 -862 -210 -147 -444 -246 -668 -283
-155 -26 -358 -17 -511 23 -213 55 -398 160 -533 301 -124 130 -196 259 -244
436 -23 87 -26 120 -27 255 -1 131 3 169 23 245 27 108 104 273 166 361 174
244 457 425 775 496 89 19 133 23 285 23 242 0 374 -28 604 -126 250 -108 460
-256 708 -503 94 -94 167 -164 163 -156 -5 8 -48 64 -95 123 -274 340 -565
565 -880 677 -163 58 -290 80 -480 85 -93 2 -183 1 -200 -1z"/>
<path d="M4345 7060 c-149 -13 -377 -54 -585 -105 -360 -89 -668 -151 -903
-180 -43 -6 -50 -10 -65 -43 -33 -73 -94 -153 -147 -193 -35 -26 -56 -50 -60
-68 -6 -27 -9 -28 -77 -34 -39 -3 -74 -10 -78 -14 -4 -4 -104 -287 -223 -628
-119 -341 -309 -885 -422 -1210 -326 -932 -442 -1268 -450 -1302 -13 -63 26
-137 90 -171 36 -19 80 -18 413 2 1722 108 3013 154 3317 118 148 -18 268 -47
327 -79 41 -22 53 -37 79 -90 25 -52 42 -73 92 -110 168 -123 394 -186 672
-186 216 -1 388 38 556 125 105 54 151 96 191 175 31 61 37 68 93 94 255 118
876 112 3419 -36 236 -14 460 -25 498 -25 112 0 166 38 183 131 6 30 -12 92
-103 360 -228 668 -366 1071 -567 1649 -113 327 -249 721 -302 875 -52 154
-102 288 -111 298 -11 13 -31 17 -78 17 l-63 0 -12 38 c-8 27 -21 44 -50 60
-47 27 -110 104 -150 183 -28 57 -29 57 -81 64 -145 17 -476 83 -668 132 -434
112 -561 136 -791 153 -413 30 -891 -75 -1323 -292 -193 -97 -408 -229 -567
-348 -44 -33 -81 -60 -83 -60 -3 0 -49 33 -103 73 -473 353 -944 560 -1403
617 -123 15 -349 20 -465 10z m504 -75 c441 -64 889 -264 1340 -600 l101 -75
0 -1407 0 -1407 -172 170 c-237 233 -396 357 -633 491 -381 217 -837 322
-1263 293 -321 -22 -504 -63 -1003 -225 -350 -114 -533 -165 -729 -204 -152
-31 -399 -66 -407 -57 -2 2 38 154 91 338 52 183 165 583 250 888 207 742 426
1503 434 1512 4 3 93 21 197 38 196 33 429 83 665 144 240 63 482 105 675 120
92 7 346 -4 454 -19z m3436 15 c197 -14 333 -40 672 -125 330 -84 465 -113
664 -145 l137 -23 15 -51 c81 -278 355 -1240 426 -1496 88 -320 180 -650 280
-1005 28 -99 51 -184 51 -188 0 -11 -70 -2 -285 33 -252 42 -421 88 -815 220
-374 126 -522 167 -710 199 -542 93 -1099 -1 -1573 -265 -241 -135 -454 -300
-674 -523 l-133 -134 0 1406 0 1406 58 44 c99 77 323 223 436 285 373 208 792
338 1160 361 67 5 128 9 136 9 8 1 78 -3 155 -8z m-5599 -672 c-87 -299 -228
-795 -315 -1108 -137 -497 -232 -832 -366 -1291 -59 -200 -98 -268 -212 -367
l-60 -51 18 57 c48 154 336 1078 407 1307 111 356 284 927 377 1240 113 383
103 357 160 403 28 21 52 38 53 36 2 -1 -26 -103 -62 -226z m7270 155 c15 -13
37 -73 77 -208 164 -565 248 -842 535 -1775 178 -577 274 -897 288 -954 l7
-30 -48 40 c-62 50 -117 119 -149 189 -29 61 -45 114 -211 710 -64 231 -136
490 -160 575 -24 85 -94 335 -155 555 -109 391 -263 926 -277 962 -6 16 8 6
93 -64z m-7416 -160 c-289 -979 -769 -2566 -865 -2860 -7 -24 -11 -44 -7 -47
4 -2 129 0 277 5 2709 84 3021 86 3365 14 201 -42 363 -124 390 -199 33 -90
49 -114 103 -149 72 -48 123 -69 233 -98 79 -21 111 -24 279 -24 162 0 203 4
277 22 186 47 295 121 324 219 45 157 303 244 820 275 246 15 710 6 2579 -50
336 -10 613 -16 617 -12 6 6 -53 205 -382 1296 -185 613 -209 695 -332 1115
-44 151 -95 328 -114 392 -19 64 -34 120 -34 123 0 4 11 5 25 3 24 -3 34 -29
194 -503 93 -275 246 -725 340 -1000 213 -618 510 -1514 518 -1558 4 -25 0
-37 -16 -51 -24 -21 1 -22 -1051 39 -1321 77 -2318 106 -2590 76 -311 -34
-443 -90 -505 -212 -65 -128 -265 -218 -547 -248 -196 -21 -466 19 -612 90
-101 49 -148 90 -184 157 -18 33 -47 73 -65 88 -137 116 -485 156 -1175 135
-596 -18 -1429 -58 -2420 -116 -529 -31 -497 -31 -519 1 -16 25 -15 30 31 173
90 273 316 934 548 1601 127 366 280 815 340 998 l110 332 28 0 c26 0 28 -2
20 -27z m2075 -1944 c445 -53 883 -250 1255 -563 86 -72 370 -352 370 -365 0
-4 -30 -12 -67 -17 l-68 -11 -70 56 c-154 124 -337 242 -510 328 -433 218
-952 316 -1435 273 -179 -16 -401 -57 -695 -127 -368 -87 -612 -140 -785 -169
-153 -25 -498 -64 -575 -64 -44 0 -45 1 -34 22 6 11 21 51 34 87 l22 66 69 8
c293 31 587 102 1052 251 429 138 575 177 817 216 184 29 422 33 620 9z m3856
10 c292 -23 466 -65 969 -234 444 -149 701 -212 1013 -249 l99 -11 28 -89 29
-88 -97 7 c-397 27 -622 67 -1212 210 -519 126 -677 150 -985 150 -223 -1
-343 -13 -552 -56 -434 -90 -877 -299 -1183 -560 l-55 -47 -65 10 c-36 6 -67
12 -69 14 -8 8 175 197 282 291 154 136 224 190 363 279 335 214 701 339 1094
373 140 12 192 12 341 0z m-3804 -374 c398 -51 750 -177 1102 -396 127 -79
277 -192 272 -205 -2 -5 -25 -17 -52 -27 l-48 -18 -93 62 c-248 167 -581 277
-1013 335 -185 25 -648 26 -875 1 -210 -23 -683 -86 -689 -92 -7 -8 24 -6 179
10 280 28 744 55 938 55 495 -1 943 -91 1272 -255 89 -44 235 -134 228 -140
-2 -2 -26 -16 -54 -33 l-50 -29 -47 48 c-109 112 -356 188 -702 218 -209 18
-730 12 -1665 -19 -162 -6 -529 -17 -815 -25 -286 -8 -576 -17 -645 -21 l-125
-6 92 90 93 91 187 16 c349 30 641 80 1078 185 381 92 630 141 801 159 139 15
503 12 631 -4z m4033 -10 c136 -21 402 -79 710 -154 437 -106 675 -146 1043
-176 187 -15 189 -15 210 -42 26 -34 59 -67 111 -111 21 -18 37 -35 35 -37 -2
-2 -139 1 -304 6 -2205 67 -2375 71 -2650 66 -376 -7 -542 -31 -762 -108 -112
-40 -163 -70 -212 -126 l-40 -44 -50 33 c-28 18 -51 35 -51 38 0 10 145 98
229 140 86 43 254 107 351 134 94 26 348 74 495 93 273 35 785 22 1327 -33 86
-9 164 -14 175 -12 27 5 -387 65 -652 93 -598 64 -1192 -7 -1632 -196 -127
-54 -176 -81 -278 -151 l-71 -48 -52 18 c-28 9 -52 20 -52 25 0 13 162 135
270 203 326 205 734 349 1130 400 145 18 577 12 720 -11z m-2142 -674 c83 -24
192 -77 237 -115 l30 -25 -30 -25 c-148 -125 -494 -168 -765 -95 -80 22 -178
69 -206 100 -16 18 -16 20 0 38 38 42 191 110 306 137 87 21 337 12 428 -15z"/>
<path d="M1 988 l-1 -988 993 2 c545 1 970 3 942 5 -239 16 -573 115 -805 240
-524 282 -902 758 -1065 1342 -22 82 -36 162 -54 316 -5 40 -9 -348 -10 -917z"/>
<path d="M12530 1914 c0 -30 -9 -106 -20 -168 -103 -587 -480 -1129 -1004
-1445 -239 -145 -540 -251 -796 -280 -52 -6 -108 -13 -125 -15 -16 -1 417 -4
963 -5 l992 -1 0 985 c0 542 -2 985 -5 985 -3 0 -5 -25 -5 -56z"/>
</g>
</svg>
