<?xml version="1.0" standalone="no"?>
<!DOCTYPE svg PUBLIC "-//W3C//DTD SVG 20010904//EN"
 "http://www.w3.org/TR/2001/REC-SVG-20010904/DTD/svg10.dtd">
<svg version="1.0" xmlns="http://www.w3.org/2000/svg"
 width="1254.000000pt" height="1254.000000pt" viewBox="0 0 1254.000000 1254.000000"
 preserveAspectRatio="xMidYMid meet">

<g transform="translate(0.000000,1254.000000) scale(0.100000,-0.100000)"
fill="#000000" stroke="none">
<path fill="#aaa8b4" opacity="0.22" d="M2 6273 l3 -6268 2 6263 3 6262 6260 0 6260 0 0 -6260 0 -6260 -6257
-3 -6258 -2 6263 -3 6262 -2 0 6270 0 6270 -6270 0 -6270 0 2 -6267z"/>
<path fill="#5657d9" d="M4440 10049 c-229 -29 -463 -116 -647 -240 -469 -316 -616 -928 -350
-1448 175 -343 461 -575 826 -670 416 -109 850 -27 1246 237 229 153 421 330
798 737 616 665 897 911 1222 1070 446 218 872 218 1248 -2 113 -66 276 -229
336 -337 164 -291 178 -616 41 -938 -97 -227 -310 -445 -553 -566 -201 -100
-393 -139 -632 -129 -436 18 -847 229 -1300 667 -188 182 -72 29 155 -203 343
-353 695 -537 1103 -577 314 -31 656 68 924 269 493 368 615 1104 269 1625
-311 468 -954 640 -1568 420 -116 -42 -283 -128 -406 -211 -240 -159 -495
-398 -896 -838 -497 -546 -807 -815 -1109 -964 -322 -159 -628 -197 -941 -116
-398 102 -679 371 -778 743 -31 119 -36 329 -10 453 96 465 496 820 1024 910
153 27 338 22 498 -11 395 -83 799 -338 1149 -725 84 -93 68 -66 -48 80 -241
305 -530 538 -819 660 -96 40 -293 91 -412 105 -97 12 -276 11 -370 -1z"/>
<path d="M4310 7054 c-14 -2 -65 -9 -115 -15 -120 -15 -278 -47 -520 -107
-336 -84 -740 -162 -837 -162 -24 0 -32 -9 -57 -58 -39 -77 -110 -163 -154
-187 -27 -14 -38 -28 -44 -54 l-9 -36 -66 -3 c-47 -2 -70 -8 -81 -20 -8 -9
-30 -64 -50 -122 -19 -58 -135 -391 -257 -740 -122 -349 -241 -691 -265 -760
-23 -69 -120 -345 -215 -615 -253 -720 -310 -891 -310 -928 0 -52 39 -109 92
-135 47 -24 48 -24 220 -13 1344 86 2791 147 3225 138 467 -10 635 -52 691
-172 31 -66 62 -97 149 -151 82 -52 218 -103 343 -130 121 -27 422 -27 535 0
284 66 430 147 487 273 33 73 59 93 161 124 146 44 266 53 682 53 480 0 1024
-20 1895 -70 1221 -69 1317 -73 1351 -64 56 16 101 70 106 127 5 51 -24 143
-312 978 -53 154 -103 298 -110 320 -7 22 -45 132 -85 245 -39 113 -120 347
-180 520 -60 173 -161 466 -225 650 -64 184 -126 362 -137 395 -27 80 -45 95
-119 95 -58 0 -60 1 -65 30 -5 20 -23 42 -60 70 -62 47 -96 89 -139 173 l-31
62 -125 17 c-180 25 -449 81 -686 144 -424 111 -609 139 -898 131 -555 -15
-1060 -200 -1633 -598 -78 -54 -144 -99 -146 -99 -2 0 -69 47 -150 104 -487
349 -923 534 -1381 586 -83 9 -418 12 -475 4z m458 -64 c469 -50 932 -249
1420 -609 l102 -75 0 -1405 0 -1404 -167 164 c-180 177 -303 280 -451 378
-576 383 -1186 495 -1889 346 -149 -31 -242 -59 -618 -180 -321 -104 -493
-152 -677 -189 -147 -29 -395 -62 -404 -54 -3 4 44 179 104 390 61 211 140
491 177 623 90 325 195 700 262 930 30 105 70 244 89 310 18 66 57 203 86 304
l53 185 150 23 c217 33 327 56 635 133 318 79 453 107 600 125 131 16 400 18
528 5z m3592 0 c189 -20 323 -48 734 -154 191 -49 414 -96 560 -117 48 -7 93
-18 100 -24 11 -11 321 -1089 521 -1810 48 -170 124 -444 171 -608 46 -163 84
-302 84 -308 0 -15 -72 -8 -281 26 -235 39 -440 94 -829 225 -520 175 -710
217 -1030 227 -601 19 -1134 -164 -1640 -565 -52 -41 -164 -144 -248 -228 -85
-85 -155 -154 -158 -154 -2 0 -4 630 -4 1399 0 1252 2 1401 16 1415 8 9 72 56
142 104 393 274 766 443 1177 533 202 44 483 60 685 39z m-5650 -576 c-126
-433 -365 -1279 -445 -1574 -53 -197 -251 -879 -287 -990 -16 -52 -38 -111
-48 -130 -35 -69 -201 -232 -187 -184 6 22 118 380 332 1069 177 567 256 828
545 1795 20 68 28 79 74 116 28 23 52 40 54 39 1 -1 -16 -65 -38 -141z m7200
102 c20 -18 44 -37 53 -42 9 -5 24 -40 35 -79 81 -288 320 -1082 575 -1910
245 -791 296 -965 287 -965 -5 0 -40 30 -78 68 -105 101 -125 148 -235 547
-31 110 -80 288 -110 395 -30 107 -117 416 -192 685 -178 636 -363 1284 -375
1313 -13 30 -4 28 40 -12z m-7370 -178 c0 -29 -478 -1619 -747 -2487 -74 -238
-132 -435 -130 -438 3 -2 322 5 708 16 1507 44 1909 53 2294 48 328 -4 411 -8
520 -25 171 -27 272 -54 359 -96 104 -51 151 -95 170 -161 12 -40 26 -62 56
-88 156 -133 507 -191 798 -131 192 39 352 146 352 234 0 34 76 107 149 141
36 17 117 44 180 60 334 85 547 87 2766 24 473 -14 875 -25 893 -25 33 0 33 1
27 33 -4 17 -24 88 -45 157 -21 69 -95 314 -165 545 -70 231 -173 573 -230
760 -122 401 -185 614 -255 860 -28 99 -78 269 -111 378 -32 109 -59 200 -59
203 0 2 11 4 24 4 22 0 28 -10 62 -112 41 -126 340 -1000 501 -1468 221 -642
493 -1466 493 -1496 0 -55 -12 -58 -203 -50 -95 4 -318 15 -497 26 -394 24
-1147 63 -1630 86 -218 11 -543 18 -845 18 -464 1 -496 0 -605 -21 -231 -44
-321 -87 -368 -176 -43 -81 -98 -134 -176 -172 -290 -140 -751 -137 -1025 5
-86 45 -130 88 -173 167 -44 83 -131 128 -320 167 -187 39 -568 47 -1163 26
-324 -11 -1607 -75 -2240 -111 -214 -13 -402 -20 -417 -16 -18 5 -30 16 -34
32 -8 31 133 454 654 1955 46 135 152 446 235 693 141 421 151 447 173 447 13
0 24 -6 24 -12z m2145 -1973 c403 -64 810 -247 1141 -515 81 -65 414 -388 414
-401 0 -4 -30 -12 -67 -19 -60 -10 -69 -9 -89 7 -219 176 -380 280 -607 388
-414 198 -857 284 -1316 256 -260 -16 -380 -38 -981 -180 -281 -66 -509 -112
-670 -136 -147 -21 -388 -45 -460 -45 l-61 0 15 28 c7 15 22 53 32 85 10 31
21 57 25 57 28 0 263 34 354 51 235 44 403 90 850 235 357 116 610 177 845
203 118 13 455 5 575 -14z m3846 15 c260 -26 442 -72 909 -230 421 -142 635
-196 956 -241 l160 -22 26 -84 25 -83 -47 0 c-219 0 -748 83 -1087 171 -818
211 -1158 240 -1668 144 -250 -47 -451 -115 -695 -233 -204 -99 -421 -239
-537 -345 l-42 -39 -71 12 -70 12 49 56 c214 246 540 501 816 639 242 123 553
213 832 242 115 12 326 12 444 1z m-3951 -361 c443 -40 850 -183 1240 -437
109 -71 228 -160 229 -173 1 -3 -24 -13 -55 -23 l-56 -18 -96 65 c-292 196
-711 313 -1242 348 -186 12 -356 7 -613 -17 -158 -14 -683 -81 -702 -88 -20
-8 82 -6 160 4 92 11 611 46 825 55 295 13 715 -33 1007 -110 185 -49 447
-164 566 -248 l48 -34 -51 -32 -51 -32 -65 60 c-127 116 -366 184 -749 212
-177 13 -554 8 -1340 -16 -258 -8 -708 -21 -1000 -30 -291 -8 -601 -17 -689
-21 l-158 -7 90 90 89 90 169 12 c385 28 627 72 1309 236 259 62 487 101 690
118 95 8 339 6 445 -4z m4100 -14 c132 -20 328 -63 731 -159 488 -116 698
-151 1069 -177 151 -10 166 -13 179 -32 8 -12 47 -53 85 -90 l71 -69 -170 6
c-93 4 -330 11 -525 16 -394 11 -741 22 -1515 46 -782 24 -1096 11 -1366 -56
-199 -50 -324 -113 -369 -185 l-20 -33 -50 31 c-27 18 -49 35 -49 39 -2 15 95
79 199 132 276 142 630 224 1100 256 217 15 664 -6 1140 -55 136 -13 186 -14
123 -1 -158 33 -652 92 -890 107 -374 23 -845 -30 -1163 -133 -221 -71 -354
-133 -497 -230 l-72 -49 -55 17 c-31 10 -56 20 -56 23 1 11 146 119 251 187
332 216 793 378 1209 423 123 14 514 5 640 -14z m-2136 -674 c86 -23 205 -77
251 -116 l29 -24 -24 -26 c-33 -35 -148 -88 -240 -111 -59 -15 -111 -19 -240
-18 -173 0 -250 12 -363 54 -57 22 -137 75 -144 96 -6 17 100 84 183 116 40
15 108 35 151 43 106 20 292 13 397 -14z"/>
</g>
</svg>
