<?xml version="1.0" encoding="UTF-8"?>
<svg version="1.1" xmlns="http://www.w3.org/2000/svg" width="1254" height="1254">
<path d="M0 0 C413.82 0 827.64 0 1254 0 C1254 413.82 1254 827.64 1254 1254 C840.18 1254 426.36 1254 0 1254 C0 840.18 0 426.36 0 0 Z " fill="#F2F2F2" transform="translate(0,0)"/>
<path d="M0 0 C1.33796599 -0.00413962 1.33796599 -0.00413962 2.70296159 -0.00836286 C4.1773446 -0.00527988 4.1773446 -0.00527988 5.68151313 -0.00213462 C6.7276812 -0.00388766 7.77384927 -0.0056407 8.85171941 -0.00744686 C12.39253522 -0.01213592 15.93331048 -0.00963391 19.47412807 -0.00721294 C22.02426746 -0.00907945 24.57440657 -0.01137951 27.12454522 -0.01407826 C32.68733176 -0.01893644 38.25010584 -0.02064785 43.81289417 -0.01962215 C52.08504001 -0.01810058 60.35717618 -0.02225153 68.62932014 -0.02749677 C84.26205372 -0.0371819 99.89478403 -0.03998146 115.52752026 -0.04055383 C127.59879725 -0.04101292 139.67007295 -0.04306889 151.74134952 -0.04625446 C155.21285494 -0.04715197 158.68436036 -0.04804178 162.15586579 -0.04892933 C163.45032084 -0.04926091 163.45032084 -0.04926091 164.77092649 -0.04959918 C189.0546824 -0.05575595 213.33843786 -0.05969949 237.62219459 -0.0592559 C238.53828529 -0.05924032 239.454376 -0.05922474 240.39822703 -0.05920869 C245.04161485 -0.05912558 249.68500268 -0.05902654 254.3283905 -0.05892398 C255.71174008 -0.05889406 255.71174008 -0.05889406 257.12303612 -0.05886354 C258.98801805 -0.05882311 260.85299997 -0.05878131 262.7179819 -0.05873815 C291.73316328 -0.05812541 320.74833297 -0.06563059 349.763511 -0.07931072 C382.34416446 -0.09466547 414.92481023 -0.10327728 447.50546753 -0.10234749 C450.97854473 -0.10227286 454.45162193 -0.10222415 457.92469913 -0.10219318 C459.20748602 -0.1021757 459.20748602 -0.1021757 460.5161878 -0.10215786 C474.28992519 -0.10212706 488.06365245 -0.10851823 501.83738683 -0.11712544 C515.67732681 -0.12559522 529.51725194 -0.1265972 543.35719308 -0.12001612 C551.58281261 -0.11631579 559.80838711 -0.11816719 568.03400189 -0.12795846 C574.17127351 -0.13464753 580.30849686 -0.13091811 586.44576619 -0.12308524 C588.93234374 -0.12154151 591.41892614 -0.12339898 593.90549799 -0.12894531 C597.278549 -0.1359724 600.65136575 -0.13073752 604.02440864 -0.12238914 C604.99562481 -0.12735732 605.96684099 -0.1323255 606.96748796 -0.13744423 C619.82027286 -0.06993565 630.29808449 4.187686 639.69490749 13.02103108 C642.59252551 16.11373626 644.84769173 19.30078351 646.66756374 23.12649983 C647.17664303 24.14402396 647.68572232 25.16154809 648.21022826 26.20990628 C650.75440243 33.12926013 650.08353959 40.77191258 650.05524379 48.04199666 C650.05941864 49.78244342 650.06489698 51.52288746 650.0715636 53.26332647 C650.08601718 58.03746404 650.08177373 62.81142897 650.07439679 67.585576 C650.06966721 72.73770219 650.08217313 77.88979091 650.0924142 83.04190511 C650.10961175 93.1321219 650.1104402 103.22227645 650.1052013 113.3125041 C650.10116008 121.51398897 650.10260259 129.71545544 650.10794955 137.91693944 C650.10869798 139.08417073 650.1094464 140.25140203 650.1102175 141.45400397 C650.11174898 143.82522839 650.11328732 146.1964528 650.11483247 148.56767721 C650.12856102 170.80554834 650.12311736 193.04338428 650.11164726 215.2812546 C650.10171494 235.6241841 650.11465492 255.96702265 650.13858145 276.30993812 C650.16296593 297.19965838 650.17258189 318.08933627 650.16592872 338.97907048 C650.162435 350.7064212 650.16467865 362.43370196 650.18217975 374.16104192 C650.19689358 384.14448298 650.19754784 394.12780483 650.18010884 404.11124353 C650.1715897 409.20413279 650.1694717 414.29680902 650.18476039 419.38968724 C650.19859008 424.05433029 650.19386633 428.71857745 650.17452116 433.3831975 C650.17075557 435.06818455 650.17369921 436.75320318 650.18413281 438.43816213 C650.2353075 447.33726963 650.01180803 455.09397692 645.66756374 463.12649983 C645.14936061 464.08942952 644.63115749 465.05235921 644.09725124 466.04446858 C638.13888322 474.74248823 630.23509385 479.93021469 620.66756374 484.12649983 C619.67756374 484.12649983 618.68756374 484.12649983 617.66756374 484.12649983 C617.33756374 484.78649983 617.00756374 485.44649983 616.66756374 486.12649983 C615.94679527 486.11082935 615.22602679 486.09515887 614.48341686 486.07901353 C596.90491883 485.70276045 579.32744936 485.42188117 561.74580699 485.24569291 C553.24299011 485.15821085 544.74286842 485.03907522 536.24178249 484.84402913 C528.82760463 484.67400253 521.41537857 484.5647808 513.99930531 484.52699542 C510.07512534 484.50491818 506.15652574 484.45349716 502.23414546 484.32908887 C486.55447028 483.19794445 486.55447028 483.19794445 472.21430141 487.7865836 C468.30937269 491.70391582 465.8838593 496.08746798 463.6618188 501.10948819 C462.16855412 504.13882377 460.18316802 506.2534578 457.85506374 508.68899983 C457.13963405 509.44954671 456.42420436 510.21009358 455.68709499 510.99368733 C454.68742702 512.04942952 454.68742702 512.04942952 453.66756374 513.12649983 C452.45292068 514.51684597 451.24426814 515.91245545 450.04256374 517.31399983 C443.54737625 524.72859741 436.46967214 531.09864526 428.66756374 537.12649983 C428.09876491 537.57122639 427.52996608 538.01595296 426.94393092 538.47415608 C392.94559623 564.73645227 349.39592869 579.94452366 306.41756374 579.50149983 C305.21465694 579.49501927 305.21465694 579.49501927 303.98744899 579.48840779 C258.66313358 579.20333859 214.74895771 564.20000606 179.66756374 535.12649983 C179.0795901 534.64003987 178.49161647 534.15357991 177.88582546 533.65237874 C164.6994086 522.67589799 153.81367738 510.8114882 143.29256374 497.25149983 C142.87571315 496.71629719 142.45886256 496.18109456 142.02938014 495.62967366 C140.24153475 493.30430851 138.66692829 491.12519182 137.38199455 488.48026723 C135.88421778 485.89202655 135.88421778 485.89202655 133.14550811 485.50960988 C132.13145117 485.51333859 131.11739423 485.51706731 130.07260829 485.52090901 C128.90784465 485.51284734 127.74308101 485.50478566 126.5430215 485.49647969 C124.62382396 485.52120099 124.62382396 485.52120099 122.66585475 485.54642171 C121.30558743 485.54615508 119.94531893 485.54362221 118.58505946 485.53899068 C115.65305606 485.53358068 112.72165342 485.54365773 109.78972751 485.56547993 C105.14436761 485.59935048 100.49951635 485.59525402 95.85407192 485.58536214 C85.14269066 485.568361 74.43156689 485.6010452 63.72024471 485.63428944 C53.92649103 485.66420874 44.13302271 485.68340255 34.33922839 485.66262358 C29.73175312 485.65427492 25.12519569 485.66987896 20.51785129 485.70441884 C17.63386982 485.72100181 14.75017922 485.71665321 11.86617786 485.70697278 C9.91466974 485.70659366 7.96320462 485.73102156 6.01186305 485.75651997 C-6.27413125 485.67329822 -16.41010201 481.63703404 -25.33243626 473.12649983 C-35.81556313 462.14417645 -36.92587041 450.32788991 -36.86055821 435.83919209 C-36.86732381 434.09487832 -36.87581812 432.35057056 -36.88588142 430.6062727 C-36.90832067 425.83520338 -36.90596137 421.06442551 -36.89931208 416.29332 C-36.89643066 411.13910336 -36.91650652 405.98496701 -36.93346471 400.8307845 C-36.9627864 390.74163844 -36.97011526 380.65259244 -36.9688892 370.56340816 C-36.96805606 362.36059278 -36.97392553 354.15780897 -36.98451489 345.95500058 C-37.01718192 320.14902891 -37.02618041 294.34315448 -37.01742516 268.53716514 C-37.01144357 248.19382999 -37.04184044 227.85073585 -37.08904787 207.5074608 C-37.13717567 186.60405577 -37.15922056 165.70076674 -37.15373707 144.79730511 C-37.15116276 133.06756974 -37.15910845 121.33806526 -37.19480771 109.60837811 C-37.22496105 99.62249205 -37.23065981 89.63695707 -37.20499869 79.65105226 C-37.19259636 74.55950829 -37.19130974 69.46862386 -37.2207076 64.37713498 C-37.24736812 59.70904728 -37.24125724 55.04215151 -37.20987765 50.3741037 C-37.20417746 48.69249587 -37.2101011 47.01079625 -37.22933366 45.32928874 C-37.37106446 32.0311556 -34.69838285 22.0569347 -25.76993626 11.68899983 C-19.23665498 5.72159331 -8.88523508 0.00336299 0 0 Z " fill="#080707" transform="translate(320.33243626356125,455.8735001683235)"/>
<path d="M0 0 C215.82 0 431.64 0 654 0 C654.185625 80.8396875 654.185625 80.8396875 654.375 163.3125 C654.42962402 180.33626221 654.48424805 197.36002441 654.54052734 214.8996582 C654.56762695 235.67028809 654.56762695 235.67028809 654.57266235 245.39054871 C654.5782576 252.18685859 654.60026629 258.98287255 654.63345337 265.77909851 C654.67168349 273.61967429 654.68900691 281.45996623 654.6806697 289.30063589 C654.67705966 293.31040925 654.68272715 297.31954851 654.71529078 301.32920516 C654.74459719 304.95993484 654.74587346 308.5895851 654.72540665 312.22036552 C654.72168191 314.14505462 654.74744511 316.06973229 654.77448463 317.99423504 C654.69030692 326.20265346 653.04350876 332.39834555 648 339 C642.14576628 344.00678419 637.26709391 346.12767094 629.5836792 346.12025452 C628.48434052 346.12162918 627.38500183 346.12300385 626.25234985 346.12442017 C625.05113495 346.12082489 623.84992004 346.11722961 622.61230469 346.11352539 C621.34375641 346.11367142 620.07520813 346.11381744 618.76821899 346.1139679 C615.29334589 346.11425474 611.81850732 346.10837617 608.34364223 346.10139394 C604.7108064 346.0951417 601.07796978 346.09455512 597.44512939 346.09336853 C590.56747412 346.09026074 583.68983475 346.08205477 576.81218648 346.07201904 C568.98153149 346.06084078 561.15087573 346.05534313 553.32021475 346.05032361 C537.21346719 346.03987171 521.10673563 346.02228294 505 346 C506.18156988 342.41051068 507.40471146 338.92793019 508.953125 335.48046875 C514.61654977 322.52331425 518.56312234 309.68416366 521.4140625 295.83642578 C521.92133285 293.38081458 522.47124807 290.93999106 523.03125 288.49609375 C533.15275645 240.27466227 519.816971 186.63893987 493.58325195 145.78662109 C466.47896041 104.62238005 422.60739589 71.4682956 373.79296875 61.05859375 C371.18284706 60.53063175 368.57079778 60.04929699 365.94921875 59.578125 C363 59 363 59 361 58 C349.98858172 55.77502956 338.99924301 55.59641986 327.8125 55.625 C326.93527283 55.6262085 326.05804565 55.62741699 325.15423584 55.62866211 C269.32193239 55.83642907 219.99883359 77.85321025 180.1875 116.5625 C151.27305561 146.38052078 134.0615169 184.41528442 127 225 C126.823479 225.88768066 126.64695801 226.77536133 126.46508789 227.68994141 C125.87434319 231.8943071 125.81823581 236.01315216 125.796875 240.25390625 C125.79117493 241.15004135 125.78547485 242.04617645 125.77960205 242.96946716 C125.7701751 244.869851 125.76362725 246.77025101 125.75976562 248.6706543 C125.75020614 251.50145551 125.71922403 254.33148287 125.6875 257.16210938 C125.5145385 286.8253305 132.19408808 315.35823298 145.15234375 342.06640625 C146 344 146 344 146 346 C129.48363949 346.11703002 112.96741439 346.20508399 96.45073891 346.25906086 C88.78098274 346.28479437 81.11148486 346.3198512 73.44189453 346.37719727 C66.75362891 346.42718187 60.06555044 346.45932627 53.37710321 346.47044247 C49.83862588 346.47693601 46.30068374 346.49209412 42.76237869 346.52865028 C38.80323845 346.56921895 34.84461201 346.56993979 30.88525391 346.56762695 C29.72431213 346.58560333 28.56337036 346.60357971 27.36724854 346.62210083 C18.76032747 346.56786505 11.91518641 344.66778126 5.52734375 338.68359375 C4.74037109 337.57177734 4.74037109 337.57177734 3.9375 336.4375 C3.11572266 335.32181641 3.11572266 335.32181641 2.27734375 334.18359375 C0.01172696 330.31056689 -0.12474096 326.8213217 -0.12304783 322.38531113 C-0.12603414 320.65899334 -0.12603414 320.65899334 -0.12908077 318.89780045 C-0.12471178 317.00147181 -0.12471178 317.00147181 -0.12025452 315.0668335 C-0.12069194 313.71372457 -0.12156884 312.36061572 -0.12284851 311.00750732 C-0.12509522 307.27836573 -0.12107293 303.54925275 -0.11607273 299.82011479 C-0.11171345 295.74106017 -0.11316685 291.66200691 -0.11389065 287.58295059 C-0.11442284 279.66081638 -0.10980031 271.73869349 -0.10338932 263.81656219 C-0.09619704 254.65521351 -0.09539499 245.49387166 -0.09460449 236.33251953 C-0.08935143 212.13834456 -0.07539036 187.94417211 -0.0625 163.75 C-0.0315625 82.69375 -0.0315625 82.69375 0 0 Z " fill="#F2F2F2" transform="translate(300,578)"/>
<path d="M0 0 C1.34095259 -0.00529263 1.34095259 -0.00529263 2.70899513 -0.01069218 C3.68900428 -0.0094944 4.66901343 -0.00829663 5.67871982 -0.00706255 C6.72574214 -0.00971438 7.77276446 -0.01236621 8.85151473 -0.01509839 C12.38922061 -0.02280868 15.92689189 -0.02335123 19.46460563 -0.02394831 C22.01489573 -0.02796178 24.56518518 -0.03239981 27.11547387 -0.03722787 C33.40825508 -0.04795336 39.70102652 -0.05395235 45.99381514 -0.05793675 C53.5291809 -0.06294507 61.06453584 -0.0736724 68.5998952 -0.08441848 C86.81369394 -0.11005065 105.02749687 -0.12508399 123.24130846 -0.13792895 C129.27309857 -0.14218318 135.30488836 -0.14674889 141.33667809 -0.15151227 C173.40093796 -0.17677033 205.46519834 -0.19882073 237.52946597 -0.21124041 C244.95871766 -0.21416179 252.38796933 -0.2171293 259.81722099 -0.22014582 C260.74022024 -0.22051673 261.66321949 -0.22088764 262.61418841 -0.22126979 C292.54719703 -0.23342819 322.48014688 -0.2643773 352.41312789 -0.30606735 C383.17985048 -0.34884055 413.94654204 -0.37547952 444.71329517 -0.38071512 C449.05743434 -0.38145559 453.40157346 -0.38236627 457.74571258 -0.3833729 C458.60068992 -0.38356352 459.45566726 -0.38375413 460.336553 -0.38395052 C474.10355824 -0.38746596 487.87048995 -0.40777226 501.63746817 -0.43416954 C515.47171912 -0.46029615 529.30588497 -0.46804921 543.14015707 -0.45706825 C551.36122193 -0.45108572 559.58199843 -0.45903299 567.80301973 -0.48689909 C573.93864527 -0.50615923 580.0739804 -0.49935052 586.20960674 -0.48232992 C588.69415859 -0.47951662 591.17873725 -0.48520162 593.66324576 -0.50014286 C597.03635986 -0.51919116 600.40802597 -0.50749712 603.78110629 -0.48808062 C604.74940961 -0.50092984 605.71771292 -0.51377906 606.71535876 -0.52701765 C614.31706346 -0.43064104 620.20704421 1.82935827 625.66560966 7.22760808 C626.10002372 7.87600652 626.53443778 8.52440496 626.98201591 9.19245183 C627.43447685 9.8434284 627.88693778 10.49440496 628.35310966 11.16510808 C641.66637643 33.12108575 631.54451591 62.45295771 631.54451591 88.12995183 C415.72451591 88.12995183 199.90451591 88.12995183 -22.45548409 88.12995183 C-22.45548409 13.53713005 -22.45548409 13.53713005 -15.00235909 5.56745183 C-10.4745841 1.35982255 -6.04835762 0.00756433 0 0 Z " fill="#F1F1F1" transform="translate(322.45548409223557,472.87004816532135)"/>
<path d="M0 0 C17.02916625 13.43395565 28.98534112 33.93172914 31.75390625 55.59765625 C33.02951743 75.22976852 30.4776023 92.84683124 21.75390625 110.59765625 C21.29886719 111.54382813 20.84382813 112.49 20.375 113.46484375 C10.58791404 131.95973803 -5.71830498 144.71739907 -25.24609375 151.59765625 C-26.24125 151.98953125 -27.23640625 152.38140625 -28.26171875 152.78515625 C-50.17335121 160.40659363 -74.8456601 155.31711952 -95.24609375 145.59765625 C-104.47441152 141.03144626 -112.52784481 135.43604709 -120.24609375 128.59765625 C-121.69435547 127.34855469 -121.69435547 127.34855469 -123.171875 126.07421875 C-134.47632027 116.16604263 -145.14682263 104.29878597 -153.24609375 91.59765625 C-153.24609375 90.60765625 -153.24609375 89.61765625 -153.24609375 88.59765625 C-152.43527344 89.43167969 -151.62445312 90.26570313 -150.7890625 91.125 C-143.94984094 98.10154697 -137.01113801 104.64133716 -129.24609375 110.59765625 C-128.70291504 111.02256348 -128.15973633 111.4474707 -127.60009766 111.88525391 C-110.20581363 125.44450084 -90.97753729 136.03470964 -69.24609375 140.59765625 C-68.49714844 140.78328125 -67.74820312 140.96890625 -66.9765625 141.16015625 C-47.36961715 144.3017555 -27.63613366 140.12697333 -11.37109375 128.78515625 C6.47026305 114.82235528 16.6108056 96.93828638 19.53125 74.59277344 C21.67802291 55.35655827 15.56134879 37.06128114 3.69140625 21.9765625 C-9.25619823 6.78624795 -25.98214895 -0.91713571 -45.7109375 -2.71875 C-75.79774552 -3.78712463 -101.08653721 14.20916392 -122.24609375 33.59765625 C-123.19613281 34.44328125 -124.14617187 35.28890625 -125.125 36.16015625 C-132.10526188 42.39678879 -138.50923414 49.01281989 -144.77148438 55.96582031 C-146.7137227 58.11514497 -148.67812602 60.24359168 -150.64208984 62.37304688 C-154.03470548 66.05452017 -157.40573595 69.75057647 -160.68359375 73.53515625 C-164.30445212 77.71441205 -168.07127228 81.75448526 -171.83251953 85.80688477 C-174.62489672 88.8213329 -177.37559087 91.85964614 -180.05859375 94.97265625 C-183.28156956 98.69750664 -186.73024384 102.15150381 -190.24609375 105.59765625 C-192.9717698 108.30485315 -195.67161103 111.03326053 -198.33984375 113.796875 C-220.4170265 136.5162323 -249.27120272 154.77929926 -281.859375 155.8984375 C-283.7590212 155.91767401 -285.65888268 155.92127415 -287.55859375 155.91015625 C-288.5626123 155.9052417 -289.56663086 155.90032715 -290.60107422 155.89526367 C-312.94291332 155.54442951 -334.35905761 146.63134554 -350.2109375 130.84765625 C-368.04474593 112.19733306 -374.8321727 89.53761851 -374.59594727 64.14453125 C-373.96492688 41.19833547 -363.73582905 20.97015054 -347.265625 5.16796875 C-338.9644713 -1.89821383 -329.4564925 -7.5716838 -319.24609375 -11.40234375 C-318.28058594 -11.79421875 -317.31507813 -12.18609375 -316.3203125 -12.58984375 C-296.56493237 -19.27556581 -272.27737895 -17.17170202 -253.24609375 -9.40234375 C-252.52405762 -9.12438965 -251.80202148 -8.84643555 -251.05810547 -8.56005859 C-241.67180549 -4.93753676 -233.34566681 -0.43418377 -225.24609375 5.59765625 C-224.40433594 6.21640625 -223.56257812 6.83515625 -222.6953125 7.47265625 C-207.38093212 19.37093054 -194.50071899 33.88890371 -183.24609375 49.59765625 C-183.57609375 50.25765625 -183.90609375 50.91765625 -184.24609375 51.59765625 C-185.12910156 50.69144531 -186.01210938 49.78523438 -186.921875 48.8515625 C-194.02975229 41.61321976 -201.22068814 34.82700791 -209.24609375 28.59765625 C-210.73496094 27.38335937 -210.73496094 27.38335937 -212.25390625 26.14453125 C-237.10519289 6.07753206 -267.34306408 -5.26410428 -299.40429688 -2.19580078 C-318.14934195 0.32610381 -335.24476449 11.28240163 -347.24609375 25.59765625 C-360.24373136 43.07130152 -363.47762665 62.64879782 -360.96191406 84.01074219 C-357.91277667 101.41453178 -347.52596404 118.22552339 -333.24609375 128.59765625 C-319.35623765 137.26154773 -306.882395 140.77383465 -290.55859375 140.84765625 C-289.43775391 140.86828125 -288.31691406 140.88890625 -287.16210938 140.91015625 C-279.70307704 140.94478902 -273.30471767 139.99873703 -266.24609375 137.59765625 C-265.52284912 137.35289551 -264.79960449 137.10813477 -264.05444336 136.85595703 C-241.02099798 128.59800763 -222.61651489 113.40031628 -205.24609375 96.59765625 C-203.90804687 95.30408203 -203.90804687 95.30408203 -202.54296875 93.984375 C-198.63688186 90.13807515 -194.94717268 86.17819947 -191.3828125 82.015625 C-188.45375236 78.70102129 -185.40643571 75.50225042 -182.37109375 72.28515625 C-177.44025952 67.04994954 -172.81573677 61.70585947 -168.328125 56.0859375 C-165.60634194 52.83307482 -162.64593706 49.88984363 -159.58203125 46.9609375 C-157.68014669 45.03679007 -155.92727473 43.08940121 -154.16796875 41.0390625 C-149.39107711 35.53675315 -144.26793271 30.37563156 -139.12109375 25.22265625 C-138.61064514 24.7115329 -138.10019653 24.20040955 -137.57427979 23.67379761 C-130.22567784 16.3405958 -122.91603632 9.36979663 -114.24609375 3.59765625 C-113.22128906 2.9015625 -112.19648437 2.20546875 -111.140625 1.48828125 C-78.00840816 -19.98107242 -32.89677493 -24.86799325 0 0 Z " fill="#080808" transform="translate(798.24609375,245.40234375)"/>
<path d="M0 0 C33.99 0 67.98 0 103 0 C103 21.45 103 42.9 103 65 C95.74 65.33 88.48 65.66 81 66 C67.68118128 67.36993564 54.79847356 69.52135577 41.75 72.4375 C41.09428009 72.58262024 40.43856018 72.72774048 39.76296997 72.8772583 C32.32659151 74.53793928 25.18131715 76.46634701 18.08300781 79.25024414 C16 80 16 80 14 80 C7.11829742 62.83966932 3.9194663 45.08693088 1.6875 26.8125 C1.60023651 26.10789642 1.51297302 25.40329285 1.42306519 24.67733765 C1.17272309 22.62568137 0.93363319 20.57306337 0.69921875 18.51953125 C0.56346436 17.33464111 0.42770996 16.14975098 0.2878418 14.92895508 C-0.0758247 9.96501542 0 4.97724324 0 0 Z " fill="#F2F2F2" transform="translate(515,841)"/>
<path d="M0 0 C1.38832031 0.32871094 1.38832031 0.32871094 2.8046875 0.6640625 C5.71784261 1.35286909 8.63214753 2.03662974 11.546875 2.71875 C15.49781762 3.6438775 19.44461079 4.58533604 23.390625 5.53125 C25.63535326 6.06276784 27.88014479 6.59401857 30.125 7.125 C31.69483643 7.50519287 31.69483643 7.50519287 33.29638672 7.89306641 C51.71418461 12.21977811 70.09026861 12.78001733 89 14 C89 35.12 89 56.24 89 78 C55.01 78 21.02 78 -14 78 C-14 62.53544087 -14 62.53544087 -13.3125 56.1875 C-13.22782471 55.40181641 -13.14314941 54.61613281 -13.0559082 53.80664062 C-11.34821212 39.40660879 -7.93151922 25.2120495 -4.3125 11.1875 C-4.11035889 10.39923828 -3.90821777 9.61097656 -3.69995117 8.79882812 C-2.79948218 5.43228071 -1.95000403 2.92500605 0 0 Z " fill="#EEEEEE" transform="translate(529,747)"/>
<path d="M0 0 C33.33 0 66.66 0 101 0 C101 8.5128943 100.41485194 16.30361901 99.3125 24.6875 C99.18003372 25.70287842 99.18003372 25.70287842 99.04489136 26.73876953 C96.69054559 44.61362842 93.28769243 62.06336464 87 79 C81.0604893 78.43561211 75.89551242 77.11958365 70.25 75.25 C47.26117716 68.08972484 24.09865544 66.55475196 0 65 C0 43.55 0 22.1 0 0 Z " fill="#F1F1F1" transform="translate(634,841)"/>
<path d="M0 0 C5.83741095 15.45772508 9.43578513 32.26370464 11.0625 48.6875 C11.19881836 49.92983398 11.19881836 49.92983398 11.33789062 51.19726562 C12.23120732 60.23118254 12 68.76825879 12 78 C-21 78 -54 78 -88 78 C-88 57.21 -88 36.42 -88 15 C-73.645 14.01 -73.645 14.01 -59 13 C-42.10879653 10.79262682 -26.34508119 7.20707033 -10.04785156 2.33691406 C-9.03819336 2.03624023 -8.02853516 1.73556641 -6.98828125 1.42578125 C-6.07602783 1.15161377 -5.16377441 0.87744629 -4.22387695 0.5949707 C-2 0 -2 0 0 0 Z " fill="#F1F1F1" transform="translate(722,746)"/>
<path d="M0 0 C0 31.02 0 62.04 0 94 C-10.48767352 94 -20.26464668 93.94073871 -30.5625 92.6875 C-31.72869873 92.54924805 -32.89489746 92.41099609 -34.09643555 92.26855469 C-50.80703387 90.22923224 -66.0552565 86.37297289 -82 81 C-80.75614259 73.95383049 -78.52993814 68.50989311 -75 62.3125 C-74.51015625 61.44036865 -74.0203125 60.5682373 -73.515625 59.66967773 C-69.16859481 52.05747329 -64.41736115 44.88823168 -59 38 C-58.56187988 37.44231934 -58.12375977 36.88463867 -57.67236328 36.31005859 C-43.69279449 18.73617503 -23.85448872 0 0 0 Z " fill="#F1F0F0" transform="translate(618,650)"/>
<path d="M0 0 C0 31.02 0 62.04 0 94 C-5.86322011 94 -9.51256375 93.49153411 -14.75 91.4375 C-15.4510083 91.16574951 -16.1520166 90.89399902 -16.87426758 90.61401367 C-46.17763418 78.8328711 -66.77225076 49.49690744 -79.50390625 21.71875 C-82 15.66550523 -82 15.66550523 -82 13 C-78.91452682 12.0364303 -75.82645034 11.08284538 -72.734375 10.140625 C-70.42788836 9.43613326 -68.12493365 8.71980634 -65.828125 7.984375 C-44.2501081 1.353082 -22.54444139 0 0 0 Z " fill="#F0F0F0" transform="translate(618,923)"/>
<path d="M0 0 C23.74972281 2.96871535 42.30713632 18.64968262 56.82275391 36.90209961 C63.73159296 45.8011268 69.61030921 55.11671675 75 65 C75.83724609 66.52367187 75.83724609 66.52367187 76.69140625 68.078125 C78.997103 72.46617466 80.31268953 76.04711322 81 81 C77.72949796 81.93865822 74.4585358 82.87570369 71.1875 83.8125 C70.27806641 84.07353516 69.36863281 84.33457031 68.43164062 84.60351562 C66.56545155 85.13765455 64.69831706 85.66849978 62.83032227 86.19628906 C60.97104277 86.72425836 59.11460868 87.26237325 57.26147461 87.81152344 C50.60973776 89.73230118 44.05863461 90.82782156 37.1875 91.625 C35.2017177 91.86632325 33.21603715 92.1084856 31.23046875 92.3515625 C30.36832764 92.45291504 29.50618652 92.55426758 28.61791992 92.65869141 C25.73509122 93.03453721 22.86766979 93.52205504 20 94 C13.4 94 6.8 94 0 94 C0 62.98 0 31.96 0 0 Z " fill="#F1F0F0" transform="translate(634,650)"/>
<path d="M0 0 C13.84056779 0 13.84056779 0 20.51953125 0.953125 C21.26603439 1.05461853 22.01253754 1.15611206 22.78166199 1.26068115 C24.34238858 1.47524553 25.90256268 1.69386705 27.4621582 1.91650391 C29.79674675 2.24776473 32.13332197 2.56022869 34.47070312 2.87109375 C44.23723923 4.2118046 53.53808857 6.2231423 63 9 C63.91096436 9.26006836 64.82192871 9.52013672 65.76049805 9.78808594 C67.99036618 10.42885006 70.21474275 11.08505475 72.4375 11.75 C73.18064453 11.97042969 73.92378906 12.19085937 74.68945312 12.41796875 C76.46018169 12.94347529 78.23018131 13.47143726 80 14 C71.5675308 42.25325036 50.30198462 72.69318868 24.32299805 87.38549805 C16.44732278 91.63869829 9.0483035 95 0 95 C0 63.65 0 32.3 0 0 Z " fill="#F0F0F0" transform="translate(634,922)"/>
<path d="M0 0 C19.14 0 38.28 0 58 0 C58 9.34878938 57.8547125 17.28186763 56.0625 26.25 C55.84215088 27.35770752 55.62180176 28.46541504 55.39477539 29.60668945 C50.09139404 54.71668516 40.02239423 82.26703344 23 102 C20 103 20 103 17.72265625 102.09130859 C16.40587891 101.3770874 16.40587891 101.3770874 15.0625 100.6484375 C14.08410156 100.12636719 13.10570312 99.60429688 12.09765625 99.06640625 C10.56431641 98.22916016 10.56431641 98.22916016 9 97.375 C1.44274748 93.29663876 -6.13213147 89.44800046 -14 86 C-13.55149693 79.3845797 -12.05397229 73.65721544 -10.0390625 67.3515625 C-8.36728206 61.95912784 -7.1262169 56.53022924 -6 51 C-5.83999512 50.21963379 -5.67999023 49.43926758 -5.51513672 48.63525391 C-2.24229791 32.33879499 -1.19658976 16.75225664 0 0 Z " fill="#F0F0F0" transform="translate(751,841)"/>
<path d="M0 0 C18.81 0 37.62 0 57 0 C57.66 8.58 58.32 17.16 59 26 C59.66 29.3 60.32 32.6 61 36 C61.25302177 38.33086718 61.48313185 40.66436401 61.6875 43 C62.85165047 53.99353412 66.21246237 64.55744014 69.2109375 75.16015625 C70.21065383 78.75814524 71.11923393 82.37124381 72 86 C71.06607422 86.34998047 71.06607422 86.34998047 70.11328125 86.70703125 C61.80674626 89.98562177 54.03760628 94.05039711 46.2121582 98.34106445 C45.337771 98.8124585 44.46338379 99.28385254 43.5625 99.76953125 C42.78003906 100.19854736 41.99757813 100.62756348 41.19140625 101.06958008 C39 102 39 102 35 102 C33.61889648 100.71264648 33.61889648 100.71264648 32.37109375 98.87109375 C31.89865234 98.17693359 31.42621094 97.48277344 30.93945312 96.76757812 C30.44380859 95.99865234 29.94816406 95.22972656 29.4375 94.4375 C28.91736328 93.64408203 28.39722656 92.85066406 27.86132812 92.03320312 C18.06048054 76.63864326 9.82029752 59.174822 5.375 41.4375 C5.17132813 40.65181641 4.96765625 39.86613281 4.7578125 39.05664062 C1.31175567 25.63690009 0 14.08793399 0 0 Z " fill="#F0F0F0" transform="translate(442,841)"/>
<path d="M0 0 C2.78351892 0.24281761 3.84345176 0.83627379 5.7890625 2.87109375 C20.94298516 24.05434309 30.19872762 46.8937613 36.25 72.0625 C36.41330811 72.74046631 36.57661621 73.41843262 36.74487305 74.11694336 C38.87988423 83.34515101 39 91.35274524 39 101 C19.86 101 0.72 101 -19 101 C-19.33 93.41 -19.66 85.82 -20 78 C-20.47275198 73.44218606 -20.97315686 69.00958493 -21.6875 64.5 C-21.94261353 62.83469238 -21.94261353 62.83469238 -22.20288086 61.13574219 C-24.18712817 48.86186749 -26.38292403 35.4890463 -31.74609375 24.171875 C-33 21 -33 21 -33.1328125 18.26953125 C-31.38308174 14.76403617 -28.3587832 13.99255675 -24.875 12.6875 C-23.42102306 12.10035831 -21.96924448 11.50774796 -20.51953125 10.91015625 C-19.77396973 10.60352051 -19.0284082 10.29688477 -18.26025391 9.98095703 C-14.59109439 8.38853071 -11.07861144 6.52737693 -7.5625 4.625 C-6.91845215 4.27912842 -6.2744043 3.93325684 -5.61083984 3.5769043 C-2.6187381 2.05355802 -2.6187381 2.05355802 0 0 Z " fill="#F0F0F0" transform="translate(770,723)"/>
<path d="M0 0 C5.02207139 1.45151059 9.10870676 3.66941681 13.5625 6.3125 C20.49780919 10.33572332 27.39508784 13.40860014 35 16 C34.32356345 21.65470556 33.05057653 27.00756592 31.5625 32.5 C31.23668945 33.72396484 31.23668945 33.72396484 30.90429688 34.97265625 C29.94191861 38.57362717 28.95299395 42.16065998 27.90625 45.73828125 C25.68233805 53.7424471 24.8773818 61.89556652 24.28125 70.15625 C24.02670609 72.7299718 23.58560928 75.11032487 23 77.625 C21.56963537 85.31320986 21.43378305 93.19190509 21 101 C2.19 101 -16.62 101 -36 101 C-36 82.46945356 -36 82.46945356 -34.3125 75.0625 C-34.13170898 74.22605957 -33.95091797 73.38961914 -33.76464844 72.52783203 C-33.20507996 70.01072713 -32.61223429 67.50477774 -32 65 C-31.81808105 64.25572754 -31.63616211 63.51145508 -31.44873047 62.74462891 C-26.06049956 41.41802059 -15.81724559 15.81724559 0 0 Z " fill="#F1F1F1" transform="translate(478,723)"/>
<path d="M0 0 C1.6291722 -0.01169993 1.6291722 -0.01169993 3.29125696 -0.02363622 C6.9435006 -0.0436359 10.59471148 -0.02775936 14.2469635 -0.01205444 C16.86010346 -0.018827 19.47323865 -0.02772808 22.08636475 -0.03860474 C28.45504957 -0.06085681 34.82344003 -0.05602716 41.19213646 -0.04154153 C46.3679386 -0.03025596 51.54365816 -0.02871541 56.71946907 -0.03416061 C57.45572959 -0.03492678 58.1919901 -0.03569294 58.95056154 -0.03648233 C60.44620877 -0.03808094 61.94185598 -0.039702 63.43750317 -0.04134528 C77.46792786 -0.0556088 91.49818931 -0.0392012 105.52858723 -0.01234345 C117.56890904 0.00999128 129.6089898 0.0061198 141.64930725 -0.01693726 C155.62748245 -0.04369271 169.60551446 -0.05423055 183.58371168 -0.03887594 C185.07420542 -0.03728318 186.56469917 -0.03571132 188.05519295 -0.03416061 C189.15524768 -0.03300355 189.15524768 -0.03300355 190.27752573 -0.03182311 C195.44696349 -0.02750498 200.61631048 -0.03479515 205.78573418 -0.04655838 C212.7436889 -0.06204322 219.70118033 -0.05102402 226.65909004 -0.0220871 C229.21611396 -0.01546341 231.77317612 -0.01739566 234.33018494 -0.02840042 C237.81447666 -0.04201581 241.2972968 -0.02498594 244.78149414 0 C245.7991937 -0.01115361 246.81689326 -0.02230722 247.8654322 -0.03379881 C252.53799794 0.03142568 254.75657977 0.12324532 258.61347294 2.95194435 C260.45423889 5.63491821 260.45423889 5.63491821 260.57923889 9.19741821 C259.19433709 13.42906261 258.28097189 14.38544194 254.45423889 16.63491821 C250.92503568 17.22527998 247.43556978 17.17874381 243.864151 17.14958191 C242.78534888 17.15652744 241.70654676 17.16347297 240.59505367 17.17062896 C236.97368747 17.18895145 233.35297247 17.1786196 229.73158264 17.16836548 C227.13800057 17.17542121 224.54442262 17.18416476 221.95085144 17.19447327 C215.63381529 17.21611781 209.31695925 17.21598536 202.9998982 17.20784772 C197.86607959 17.20154877 192.73231353 17.20268378 187.59849548 17.2091198 C186.86792118 17.21002145 186.13734688 17.21092311 185.38463396 17.21185208 C183.90050227 17.21370328 182.4163706 17.21556584 180.93223894 17.21743964 C167.0143841 17.23401949 153.09663062 17.22529715 139.17878187 17.20845407 C126.4433317 17.19375477 113.70811741 17.2083883 100.97269762 17.23722423 C87.89711592 17.26661002 74.82164313 17.27759306 61.74602985 17.26804203 C60.26734735 17.26701947 58.78866484 17.26602486 57.3099823 17.26505852 C56.58243569 17.26458213 55.85488908 17.26410574 55.1052956 17.26361491 C49.97741728 17.26144981 44.84964197 17.27125985 39.7217865 17.28582954 C32.82046641 17.30516458 25.9195927 17.29828688 19.01829147 17.27363014 C16.48222449 17.26860711 13.94612429 17.27215036 11.41008377 17.28477859 C7.95432072 17.30062827 4.50001982 17.28583253 1.04432678 17.2631073 C0.03509124 17.27494303 -0.97414431 17.28677876 -2.01396275 17.29897314 C-6.68478143 17.2363484 -8.84693194 17.16054172 -12.67248535 14.28315639 C-14.54576111 11.63491821 -14.54576111 11.63491821 -15.10826111 8.63491821 C-13.43254689 -0.30222428 -7.71464429 -0.08436471 0 0 Z " fill="#050505" transform="translate(654.5457611083984,508.3650817871094)"/>
<path d="M0 0 C11.45816672 1.17519659 22.03904839 8.6478469 32 14 C22.07977021 35.38093894 -8.74482246 50.57051136 -29.0625 59.75 C-29.83070068 60.09780518 -30.59890137 60.44561035 -31.39038086 60.80395508 C-33.23256097 61.60310686 -35.11384169 62.31103124 -37 63 C-37.66 62.67 -38.32 62.34 -39 62 C-38.16082031 61.17435547 -38.16082031 61.17435547 -37.3046875 60.33203125 C-20.97981446 43.40350535 -8.91269495 21.64085797 0 0 Z " fill="#EDEDED" transform="translate(729,943)"/>
<path d="M0 0 C0.23001709 0.53294678 0.46003418 1.06589355 0.69702148 1.61499023 C9.66307843 22.11866068 20.71282332 40.47204452 35.56640625 57.20703125 C38 60 38 60 40 63 C12.21498523 54.91708661 -11.11766246 36.43462469 -31 16 C-29.80977744 12.42933233 -29.21354135 12.28332597 -25.9921875 10.625 C-24.75855469 9.98304688 -24.75855469 9.98304688 -23.5 9.328125 C-22.63375 8.88984375 -21.7675 8.4515625 -20.875 8 C-20.03195312 7.56171875 -19.18890625 7.1234375 -18.3203125 6.671875 C-5.37848268 0 -5.37848268 0 0 0 Z " fill="#EDEDED" transform="translate(521,943)"/>
<path d="M0 0 C25.95188576 10.6393073 52.74691404 24.89222508 71 47 C71 47.66 71 48.32 71 49 C67.31820394 50.96919692 63.62863208 52.92336695 59.9375 54.875 C58.89916016 55.43058594 57.86082031 55.98617187 56.79101562 56.55859375 C51.58811454 59.30044004 46.75184119 61.71093488 41 63 C40.53851562 62.04222656 40.07703125 61.08445312 39.6015625 60.09765625 C29.75025356 39.88128041 18.48653562 19.09418842 1.73046875 3.75 C0 2 0 2 0 0 Z " fill="#EFEFEF" transform="translate(690,661)"/>
<path d="M0 0 C-0.58265625 0.59683594 -1.1653125 1.19367187 -1.765625 1.80859375 C-17.89691585 18.8783402 -28.77542965 39.04938173 -39 60 C-45.1888458 58.70628647 -50.17079297 56.61419048 -55.6875 53.5625 C-56.78674805 52.96985352 -56.78674805 52.96985352 -57.90820312 52.36523438 C-61.66111397 50.33142065 -65.36059931 48.23245289 -69 46 C-60.61725154 25.92797451 -29.2772054 11.0861423 -11 2 C-10.39043457 1.69562012 -9.78086914 1.39124023 -9.15283203 1.07763672 C-5.78112026 -0.50646716 -3.53792016 -1.55668487 0 0 Z " fill="#EEEEEE" transform="translate(559,664)"/>
<path d="M0 0 C1.14082031 -0.01095703 2.28164063 -0.02191406 3.45703125 -0.03320312 C11.83317697 0.0406172 11.83317697 0.0406172 14.82617188 2.38305664 C16.5 4.5625 16.5 4.5625 17 8 C16.38250124 12.39967866 15.91337 13.6873176 12.5 16.5625 C8.3276125 17.32939107 4.23078638 17.25920824 0 17.1875 C-1.14082031 17.20683594 -2.28164063 17.22617187 -3.45703125 17.24609375 C-11.75761426 17.19732417 -11.75761426 17.19732417 -15.25 14.2109375 C-16.78664674 10.95516721 -17.09325592 9.12203549 -16.5 5.5625 C-13.19610891 -1.44794391 -6.74888092 -0.1410783 0 0 Z " fill="#070707" transform="translate(355.5,508.4375)"/>
<path d="M0 0 C1.04736328 -0.00515625 2.09472656 -0.0103125 3.17382812 -0.015625 C4.26244141 -0.00015625 5.35105469 0.0153125 6.47265625 0.03125 C7.55740234 0.01578125 8.64214844 0.0003125 9.75976562 -0.015625 C17.63578822 0.0231016 17.63578822 0.0231016 21.75 2.34765625 C23.53515625 4.53125 23.53515625 4.53125 24.16015625 7.96875 C23.34296707 12.62672833 22.38080426 13.76500016 18.53515625 16.53125 C14.50180329 17.25089546 10.55875491 17.18358105 6.47265625 17.09375 C5.38404297 17.10470703 4.29542969 17.11566406 3.17382812 17.12695312 C-4.83437193 17.05303128 -4.83437193 17.05303128 -7.77319336 14.62084961 C-9.61577001 12.34481937 -10.00984119 11.41108648 -9.96484375 8.53125 C-9.9803125 7.54125 -9.9803125 7.54125 -9.99609375 6.53125 C-8.62260579 1.36047179 -4.92693449 0.02333263 0 0 Z " fill="#090908" transform="translate(455.46484375,508.46875)"/>
<path d="M0 0 C1.08474609 -0.01095703 2.16949219 -0.02191406 3.28710938 -0.03320312 C7.96972561 0.00996789 11.15690233 0.05035375 15.28125 2.3828125 C17.0625 4.5625 17.0625 4.5625 17.625 8 C16.93475645 12.37154248 16.45872395 13.69285985 13.0625 16.5625 C8.89103101 17.3550752 4.79713038 17.30502627 0.5625 17.25 C-0.57832031 17.27771484 -1.71914063 17.30542969 -2.89453125 17.33398438 C-6.03390628 17.32476177 -8.86889245 17.22822694 -11.9375 16.5625 C-14.73054884 13.63455959 -15.67377821 11.91407416 -16.4375 8 C-14.57911811 -1.05961171 -7.64554536 -0.16748678 0 0 Z " fill="#0A0A0A" transform="translate(407.9375,508.4375)"/>
<path d="M0 0 C33.99 0 67.98 0 103 0 C103 21.45 103 42.9 103 65 C98.38 65 93.76 65 89 65 C89 64.67 89 64.34 89 64 C93.29 64 97.58 64 102 64 C102 43.21 102 22.42 102 1 C68.67 1 35.34 1 1 1 C1.66 2.32 2.32 3.64 3 5 C3.13525391 7.01464844 3.13525391 7.01464844 2.9765625 9.109375 C2.925 9.86347656 2.8734375 10.61757813 2.8203125 11.39453125 C2.75585938 12.17183594 2.69140625 12.94914063 2.625 13.75 C2.56828125 14.54277344 2.5115625 15.33554687 2.453125 16.15234375 C2.31216305 18.10231735 2.1574288 20.05128671 2 22 C1.67 22 1.34 22 1 22 C0.82632172 20.39657731 0.66159075 18.79218592 0.5 17.1875 C0.4071875 16.29417969 0.314375 15.40085937 0.21875 14.48046875 C-0.08405647 9.66260153 0 4.82737365 0 0 Z " fill="#D0D1D1" transform="translate(515,841)"/>
<path d="M0 0 C0 31.02 0 62.04 0 94 C-1.32 93.67 -2.64 93.34 -4 93 C-3.34 93 -2.68 93 -2 93 C-2 62.97 -2 32.94 -2 2 C-2.99 1.67 -3.98 1.34 -5 1 C-2 0 -2 0 0 0 Z " fill="#E9E9E8" transform="translate(618,650)"/>
<path d="M0 0 C3.63872181 3.04464478 7.13968635 6.08820662 10.4375 9.5 C13.97912016 13.11406239 17.8792491 16.078013 22 19 C20.68 20.32 19.36 21.64 18 23 C14.57086517 19.66158302 11.44375061 16.2225225 8.4375 12.5 C7.69371094 11.5821875 6.94992187 10.664375 6.18359375 9.71875 C5.46300781 8.8215625 4.74242187 7.924375 4 7 C3.24847656 6.1028125 2.49695313 5.205625 1.72265625 4.28125 C0 2 0 2 0 0 Z " fill="#161516" transform="translate(644,334)"/>
<path d="M0 0 C13.53 0 27.06 0 41 0 C41 0.33 41 0.66 41 1 C27.8 1 14.6 1 1 1 C1.66 2.32 2.32 3.64 3 5 C3.13525391 7.01464844 3.13525391 7.01464844 2.9765625 9.109375 C2.925 9.86347656 2.8734375 10.61757813 2.8203125 11.39453125 C2.75585938 12.17183594 2.69140625 12.94914063 2.625 13.75 C2.56828125 14.54277344 2.5115625 15.33554687 2.453125 16.15234375 C2.31216305 18.10231735 2.1574288 20.05128671 2 22 C1.67 22 1.34 22 1 22 C0.82632172 20.39657731 0.66159075 18.79218592 0.5 17.1875 C0.4071875 16.29417969 0.314375 15.40085937 0.21875 14.48046875 C-0.08405647 9.66260153 0 4.82737365 0 0 Z " fill="#D7D7D8" transform="translate(515,841)"/>
<path d="M0 0 C4 0 4 0 6.41796875 2.07421875 C9.19838843 5.22480021 11.78720695 8.45666612 14.3125 11.8125 C14.76689453 12.40998047 15.22128906 13.00746094 15.68945312 13.62304688 C16.79633917 15.07947588 17.89865264 16.53937817 19 18 C18.67 18.66 18.34 19.32 18 20 C15.55416165 17.61255632 13.11989907 15.21362856 10.6875 12.8125 C9.99720703 12.13896484 9.30691406 11.46542969 8.59570312 10.77148438 C5.19069192 7.39937183 2.19194939 4.32511087 0 0 Z " fill="#252525" transform="translate(596,277)"/>
<path d="M0 0 C1.58468677 0.45363171 3.16769924 0.91311452 4.75 1.375 C5.63171875 1.63023437 6.5134375 1.88546875 7.421875 2.1484375 C11.94388946 3.64207258 14.32957784 4.99436676 17 9 C5.90566038 5.45283019 5.90566038 5.45283019 1 3 C0.67 2.01 0.34 1.02 0 0 Z " fill="#D9D9D9" transform="translate(544,997)"/>
<path d="M0 0 C-0.7425 0.185625 -1.485 0.37125 -2.25 0.5625 C-6.16528579 2.60912666 -7.04375275 5.0875055 -9 9 C-9.66 8.67 -10.32 8.34 -11 8 C-11.625 4.9375 -11.625 4.9375 -12 2 C-10.75579353 1.4654744 -9.50429064 0.94791389 -8.25 0.4375 C-7.55390625 0.14746094 -6.8578125 -0.14257812 -6.140625 -0.44140625 C-3.69987216 -1.07831803 -2.3596345 -0.80248831 0 0 Z " fill="#CDCDCE" transform="translate(548,934)"/>
<path d="M0 0 C9.31543624 7.81208054 9.31543624 7.81208054 12 11 C11.8125 13.3125 11.8125 13.3125 11 15 C8.18662344 12.27376342 5.66417643 9.459781 3.25 6.375 C2.32960938 5.21097656 2.32960938 5.21097656 1.390625 4.0234375 C0 2 0 2 0 0 Z " fill="#2D2C2D" transform="translate(644,334)"/>
<path d="M0 0 C0.66 0 1.32 0 2 0 C0.78081437 4.60581237 -1.61667616 6.63056903 -5.1796875 9.5078125 C-7.63086977 11.51715076 -9.79395606 13.72710624 -12 16 C-12 13 -12 13 -9.62890625 10.37109375 C-8.61413861 9.38558546 -7.59164611 8.40798351 -6.5625 7.4375 C-2.82510599 4.07641393 -2.82510599 4.07641393 0 0 Z " fill="#161717" transform="translate(761,957)"/>
<path d="M0 0 C1.5631897 0.00785522 1.5631897 0.00785522 3.15795898 0.01586914 C4.28266602 0.0190918 5.40737305 0.02231445 6.56616211 0.02563477 C7.75016602 0.03401367 8.93416992 0.04239258 10.15405273 0.05102539 C11.34192383 0.05553711 12.52979492 0.06004883 13.75366211 0.06469727 C16.69967499 0.07652864 19.64558954 0.09301252 22.59155273 0.11352539 C22.59155273 0.44352539 22.59155273 0.77352539 22.59155273 1.11352539 C14.67155273 1.44352539 6.75155273 1.77352539 -1.40844727 2.11352539 C-1.40844727 2.77352539 -1.40844727 3.43352539 -1.40844727 4.11352539 C-2.72844727 4.44352539 -4.04844727 4.77352539 -5.40844727 5.11352539 C-3.00264483 0.14153369 -3.00264483 0.14153369 0 0 Z " fill="#2A2B2B" transform="translate(345.408447265625,508.886474609375)"/>
<path d="M0 0 C2.09230769 4.43076923 2.09230769 4.43076923 1.625 7.3125 C1.41875 7.869375 1.2125 8.42625 1 9 C0.67 7.02 0.34 5.04 0 3 C-1.0725 3.37125 -2.145 3.7425 -3.25 4.125 C-7.23826396 5.05559492 -7.72079119 4.95881942 -11 3 C-9.54293274 2.49632243 -8.08429904 1.99717444 -6.625 1.5 C-5.81289063 1.2215625 -5.00078125 0.943125 -4.1640625 0.65625 C-2 0 -2 0 0 0 Z " fill="#C1C2C1" transform="translate(722,746)"/>
<path d="M0 0 C0 0.66 0 1.32 0 2 C-2.0762657 3.03513247 -4.16131479 4.05266211 -6.25 5.0625 C-7.41015625 5.63097656 -8.5703125 6.19945312 -9.765625 6.78515625 C-12.90644333 7.96485975 -13.99353048 8.30230734 -17 7 C-14.73272667 5.82592979 -12.46165376 4.66060261 -10.1875 3.5 C-9.22360352 2.99919922 -9.22360352 2.99919922 -8.24023438 2.48828125 C-5.30452301 0.99760916 -3.33873483 0 0 0 Z " fill="#CCCCCC" transform="translate(513,946)"/>
<path d="M0 0 C4.95 1.98 4.95 1.98 10 4 C9.34 5.65 8.68 7.3 8 9 C6.84775972 8.07038578 5.70340824 7.1309875 4.5625 6.1875 C3.60537109 5.40439453 3.60537109 5.40439453 2.62890625 4.60546875 C1 3 1 3 0 0 Z " fill="#D1D1D1" transform="translate(690,661)"/>
<path d="M0 0 C-3.465 2.97 -3.465 2.97 -7 6 C-7 5.34 -7 4.68 -7 4 C-8.32 3.34 -9.64 2.68 -11 2 C-4.5 -1.125 -4.5 -1.125 0 0 Z " fill="#E5E5E5" transform="translate(559,664)"/>
<path d="M0 0 C0.99 0.33 1.98 0.66 3 1 C-0.42166518 5.70478962 -4.57905197 9.27653164 -9 13 C-9.66 12.67 -10.32 12.34 -11 12 C-10.54109375 11.55269531 -10.0821875 11.10539062 -9.609375 10.64453125 C-6.16447701 7.25029352 -2.92744915 3.86423288 0 0 Z " fill="#DCDBDC" transform="translate(632,324)"/>
<path d="M0 0 C0.33 0 0.66 0 1 0 C1.144375 0.763125 1.28875 1.52625 1.4375 2.3125 C1.9632594 5.08172908 1.9632594 5.08172908 3 8 C2.91343435 10.39870613 2.76001509 12.79537281 2.5625 15.1875 C2.46066406 16.45980469 2.35882812 17.73210938 2.25390625 19.04296875 C2.17011719 20.01878906 2.08632813 20.99460937 2 22 C1.67 22 1.34 22 1 22 C0.20274098 14.63959083 -0.12886183 7.40239645 0 0 Z " fill="#A1A2A2" transform="translate(515,841)"/>
<path d="M0 0 C1.32 0.66 2.64 1.32 4 2 C3.071875 3.1446875 3.071875 3.1446875 2.125 4.3125 C-0.05597052 6.99625809 -0.05597052 6.99625809 -2 10 C-2.66 10.99 -3.32 11.98 -4 13 C-3.50269348 8.02693484 -2.44697666 4.36200187 0 0 Z " fill="#C2C2C2" transform="translate(529,747)"/>
<path d="M0 0 C0.99 0 1.98 0 3 0 C2.25 6.625 2.25 6.625 0 10 C-0.99 10.495 -0.99 10.495 -2 11 C-1.34 7.37 -0.68 3.74 0 0 Z " fill="#E1E1E1" transform="translate(510,739)"/>
<path d="M0 0 C0.99 0.33 1.98 0.66 3 1 C-0.63 4.3 -4.26 7.6 -8 11 C-8.66 10.67 -9.32 10.34 -10 10 C-6.7 6.7 -3.4 3.4 0 0 Z " fill="#DCDBDC" transform="translate(617,341)"/>
<path d="M0 0 C1.88343932 3.76687864 2.22057835 5.02958963 2 9 C1.01 9.33 0.02 9.66 -1 10 C-0.67 6.7 -0.34 3.4 0 0 Z " fill="#242525" transform="translate(806,865)"/>
<path d="M0 0 C0.66 0.33 1.32 0.66 2 1 C0.1875 4 0.1875 4 -2 7 C-2.99 7 -3.98 7 -5 7 C-3.70700306 4.11562221 -2.34058637 2.12780579 0 0 Z " fill="#DBDADA" transform="translate(778,964)"/>
<path d="M0 0 C0.66 1.32 1.32 2.64 2 4 C0.625 6 0.625 6 -1 8 C-1.66 8 -2.32 8 -3 8 C-1.125 2.25 -1.125 2.25 0 0 Z " fill="#2D2E2E" transform="translate(709,947)"/>
<path d="M0 0 C1.0625 1.8125 1.0625 1.8125 2 4 C1.67 4.99 1.34 5.98 1 7 C0.34 7 -0.32 7 -1 7 C-1.33 8.32 -1.66 9.64 -2 11 C-3 9 -3 9 -2.44140625 6.8359375 C-2.15136719 6.02382813 -1.86132812 5.21171875 -1.5625 4.375 C-1.27503906 3.55773437 -0.98757813 2.74046875 -0.69140625 1.8984375 C-0.46324219 1.27195312 -0.23507812 0.64546875 0 0 Z " fill="#3A3A3A" transform="translate(725,905)"/>
<path d="M0 0 C0 0.33 0 0.66 0 1 C-5.16044765 2.512545 -8.65998179 3.33500455 -14 2 C-14 1.67 -14 1.34 -14 1 C-9.23692563 0.04738513 -4.8333472 -0.08333357 0 0 Z " fill="#3B3B3B" transform="translate(587,908)"/>
<path d="M0 0 C0.66 0.33 1.32 0.66 2 1 C0.02 1.99 0.02 1.99 -2 3 C-2 4.65 -2 6.3 -2 8 C-2.66 7.34 -3.32 6.68 -4 6 C-3.625 3.375 -3.625 3.375 -3 1 C-2.01 0.67 -1.02 0.34 0 0 Z " fill="#B8B8B8" transform="translate(741,738)"/>
<path d="M0 0 C0.66 0.66 1.32 1.32 2 2 C-0.31 3.32 -2.62 4.64 -5 6 C-5.66 5.34 -6.32 4.68 -7 4 C-4.69 2.68 -2.38 1.36 0 0 Z " fill="#E6E6E7" transform="translate(735,1002)"/>
<path d="M0 0 C0.66 0.33 1.32 0.66 2 1 C0.35 2.98 -1.3 4.96 -3 7 C-3.66 6.34 -4.32 5.68 -5 5 C-3.35 3.35 -1.7 1.7 0 0 Z " fill="#E3E2E3" transform="translate(770,973)"/>
<path d="M0 0 C0.66 0 1.32 0 2 0 C0.66666667 2.66666667 -0.66666667 5.33333333 -2 8 C-2.99 7.67 -3.98 7.34 -5 7 C-4.21654285 5.82780457 -3.42297164 4.66236332 -2.625 3.5 C-2.18414063 2.8503125 -1.74328125 2.200625 -1.2890625 1.53125 C-0.65097656 0.77328125 -0.65097656 0.77328125 0 0 Z " fill="#E6E6E7" transform="translate(795,941)"/>
<path d="M0 0 C1.98 0.66 3.96 1.32 6 2 C5.01 2.66 4.02 3.32 3 4 C3 3.34 3 2.68 3 2 C2.01 2.66 1.02 3.32 0 4 C-0.99 3.67 -1.98 3.34 -3 3 C-2.01 2.01 -1.02 1.02 0 0 Z " fill="#EAEAEA" transform="translate(478,723)"/>
<path d="M0 0 C-2 1 -2 1 -4 2 C-4.70125 2.391875 -5.4025 2.78375 -6.125 3.1875 C-6.74375 3.455625 -7.3625 3.72375 -8 4 C-8.66 3.67 -9.32 3.34 -10 3 C-9 1 -9 1 -5.5625 -0.1875 C-2 -1 -2 -1 0 0 Z " fill="#3E3F3E" transform="translate(740,722)"/>
<path d="M0 0 C0.99 0.33 1.98 0.66 3 1 C1.35 2.65 -0.3 4.3 -2 6 C-2.66 5.67 -3.32 5.34 -4 5 C-2.68 3.35 -1.36 1.7 0 0 Z " fill="#E2E2E3" transform="translate(560,687)"/>
<path d="M0 0 C1.98 1.65 3.96 3.3 6 5 C5.34 5.66 4.68 6.32 4 7 C2.35 5.02 0.7 3.04 -1 1 C-0.67 0.67 -0.34 0.34 0 0 Z " fill="#ECECEC" transform="translate(765,686)"/>
<path d="M0 0 C2.95409701 1.37154504 5.44008376 2.98863724 8 5 C7.67 5.66 7.34 6.32 7 7 C4.36 5.35 1.72 3.7 -1 2 C-0.67 1.34 -0.34 0.68 0 0 Z " fill="#E2E2E2" transform="translate(733,662)"/>
</svg>
